<svg version="1.1" id="calendars" xmlns="http://www.w3.org/2000/svg" x="0" y="0" viewBox="0 0 128 128" style="enable-background:new 0 0 128 128" xml:space="preserve"><style>.st0{display:none}.st1{display:inline}.st2{fill:#232323}.st3{display:inline;fill:#fff}.st4{font-family:&apos;Helvetica-Bold&apos;}.st6{fill-rule:evenodd;clip-rule:evenodd}.st6,.st7{display:inline;fill:#232323}</style><g id="calendar_:_6"><path id="border_13_" d="M128 41v75.4c0 5.4-4.5 11.5-10 11.5H10c-5.5 0-10-6-10-11.5V41h6.6v75.7c0 3.5 1.2 4.7 4.8 4.7h105.1c3.6 0 4.8-1.2 4.8-4.7l.1-75.7h6.6z" style="fill-rule:evenodd;clip-rule:evenodd;fill:#232323"/><path class="st2" d="M119.2 9.9H8.8c-4 0-8.8 6.4-8.8 10.2v16h128v-16c0-3.8-4.8-10.2-8.8-10.2zM29.9 32.8c-4.6 0-8.3-3.7-8.3-8.2 0-4.5 3.7-8.2 8.3-8.2 4.6 0 8.3 3.7 8.3 8.2 0 4.6-3.7 8.2-8.3 8.2zm68.2 0c-4.6 0-8.3-3.7-8.3-8.2 0-4.5 3.7-8.2 8.3-8.2 4.6 0 8.3 3.7 8.3 8.2 0 4.6-3.7 8.2-8.3 8.2z" id="top_3_"/><path class="st2" d="M13.3 68.9h21.6V55.8H13.3v13.1zm26.6 0h21.6V55.8H39.9v13.1zm26.6 0h21.6V55.8H66.5v13.1zm26.6 0h21.6V55.8H93.1v13.1zM13.3 88.6h21.6V75.5H13.3v13.1zm26.6 0h21.6V75.5H39.9v13.1zm26.6 0h21.6V75.5H66.5v13.1zm26.6 0h21.6V75.5H93.1v13.1zm-79.8 19.7h21.6V95.2H13.3v13.1zm26.6 0h21.6V95.2H39.9v13.1zm26.6 0h21.6V95.2H66.5v13.1zm26.6 0h21.6V95.2H93.1v13.1zM0 41v5h128v-5H0z" id="dates_1_"/><path class="st2" d="M29.9 0c-2.7 0-3.3 2.1-3.3 4.6v18.6c0 2.6.6 4.6 3.3 4.6 2.7 0 3.3-2.1 3.3-4.6V4.7c0-2.6-.5-4.7-3.3-4.7zm68.2 0c-2.7 0-3.3 2.1-3.3 4.6v18.6c0 2.6.6 4.6 3.3 4.6 2.7 0 3.3-2.1 3.3-4.6V4.7c0-2.6-.6-4.7-3.3-4.7z" id="fix"/></g></svg>